<svg xmlns="http://www.w3.org/2000/svg" data-name="Layer 1" viewBox="0 0 700 550"><path d="M301.44189 341.34012H288.2627a.20505.20505 0 01-.20508-.20508v-5.96289a3.85493 3.85493 0 00-2.314.06836l-.08105.05273a6.45012 6.45012 0 01-3.05371.67285c-2.24854 0-4.00977-.85937-4.00977-1.95605 0-1.09766 1.76123-1.957 4.00977-1.957a6.51577 6.51577 0 013.06347.67773l.09473.0625a3.85851 3.85851 0 002.29053.05957v-1.52636a.20508.20508 0 11.41015 0v1.65332a.20578.20578 0 01-.10595.17968 4.07917 4.07917 0 01-2.749.01465.22466.22466 0 01-.04883-.02344l-.10546-.07031a6.10071 6.10071 0 00-2.84961-.61719c-2.15332 0-3.59961.79981-3.59961 1.54688s1.44629 1.5459 3.59961 1.5459a6.02032 6.02032 0 002.84863-.61817l.11621-.06836a4.0097 4.0097 0 012.78906-.002.20431.20431 0 01.105.17871V340.93h12.97412a.20508.20508 0 110 .41016zM319.25879 341.34012H305.6875a.20508.20508 0 010-.41016h13.36621V327.08914h-8.80517a.20508.20508 0 110-.41016h9.01025a.20506.20506 0 01.20508.20508v14.251A.20506.20506 0 01319.25879 341.34012z"/><path d="M340.82407,334.00917c0,.97,1.71,1.75,3.81,1.75a6.29274,6.29274,0,0,0,2.95-.64013l.12-.06983a3.95444,3.95444,0,0,1,2.55-.02v6.10987h-31v-6.08985a3.83183,3.83183,0,0,0-2.58,0l-.12.06983a6.29274,6.29274,0,0,1-2.95.64013c-2.1,0-3.81-.78-3.81-1.75,0-.96,1.71-1.75,3.81-1.75a6.30006,6.30006,0,0,1,2.96.64991l.11.07006a3.90168,3.90168,0,0,0,2.58,0v-6.09008h13.26c1.17-.44995,0-1.18994,0-1.18994l-.16-.06006c-.86-.32007-1.4-.81006-1.4-1.3501,0-.97,1.7-1.75,3.8-1.75s3.81.78,3.81,1.75c0,.55-.55,1.04-1.42,1.36011l-.14.05s-1.18.74,0,1.18994h13.25v6.10009a3.91072,3.91072,0,0,1-2.55-.01l-.11-.07006a6.33,6.33,0,0,0-2.96-.64991C342.53409,332.25917,340.82407,333.039,340.82407,334.00917Z"/><path fill="none" d="M319.259,355.48973h30.99368V341.23779h-13.252c-1.17924-.45009,0-1.1897,0-1.1897l.14625-.0488c.86317-.32088,1.41516-.81174,1.41516-1.36188,0-.96659-1.70412-1.75021-3.80623-1.75021s-3.80623.78362-3.80623,1.75021c0,.54736.54642,1.036,1.40207,1.357l.15779.05368s1.1792.73961,0,1.1897H319.259Z"/><path d="M319.25407 341.23915v14.25h-13.31c-1.08-.45019.06-1.16015.06-1.16015l.15-.04981c.86-.32006 1.41-.81006 1.41-1.3601 0-.97-1.7-1.75-3.8-1.75s-3.81.78-3.81 1.75c0 .55.55 1.03 1.4 1.3601l.16.04981s1.13.71.07 1.16015h-13.32v-6.09008a3.92546 3.92546 0 00-2.59 0l-.11.07006a6.29571 6.29571 0 01-2.95.6399c-2.11 0-3.81-.78-3.81-1.75 0-.96 1.7-1.75 3.81-1.75a6.206 6.206 0 012.96.65991l.1.06006a3.92546 3.92546 0 002.59 0v-6.08985h13.25l.1-.04c.95.45-.14 1.12988-.14 1.12988l-.14.05c-.86.32007-1.41.81006-1.41 1.3601 0 .97 1.7 1.75 3.8 1.75s3.81-.78 3.81-1.75c0-.55-.55-1.04-1.4-1.3601l-.16-.05s-1.11-.7-.1-1.1499l.13.06zM367.90032 341.17947c-1.015.45006.09666 1.14737.09666 1.14737l.15709.05557c.85791.31948 1.40166.80844 1.40166 1.35573 0 .9668-1.70375 1.75024-3.80624 1.75024s-3.80624-.78344-3.80624-1.75024c0-.55007.54979-1.0418 1.41375-1.36129l.145-.05s1.0875-.67787.13291-1.13071l-.09553.04166H350.28891v6.09373a3.90266 3.90266 0 01-2.58724 0l-.10613-.06725a6.22952 6.22952 0 00-2.96167-.65072c-2.102 0-3.8062.78359-3.8062 1.75021s1.70416 1.75022 3.8062 1.75022a6.24681 6.24681 0 002.95105-.64469l.11675-.07257a3.90259 3.90259 0 012.58724 0v6.093h30.99368V341.23779h-13.252z"/><path d="M319.25391,369.97391H288.26416a.20506.20506,0,0,1-.20508-.20508v-5.96289a3.88735,3.88735,0,0,0-2.31982.06738l-.06543.04883a6.52,6.52,0,0,1-3.05957.67187c-2.25147,0-4.01514-.85937-4.01514-1.95507s1.76367-1.95508,4.01514-1.95508a6.52256,6.52256,0,0,1,3.05957.67675l.09131.06153a3.86159,3.86159,0,0,0,2.29394.05957v-5.96289a.20506.20506,0,0,1,.20508-.20508h13.21a.22214.22214,0,0,1,.27979.10059.19053.19053,0,0,1-.08008.25976l-.04981.02051a.44112.44112,0,0,1-.10986.0293H288.46924v5.88476a.20625.20625,0,0,1-.10645.17969,4.08314,4.08314,0,0,1-2.75341.01465.17878.17878,0,0,1-.05176-.02637l-.1001-.06934a6.12471,6.12471,0,0,0-2.84326-.61328c-2.15674,0-3.605.79883-3.605,1.54493s1.44824,1.54492,3.605,1.54492a6.11182,6.11182,0,0,0,2.8501-.61328l.10009-.06446a4.0582,4.0582,0,0,1,2.79834-.00683.20625.20625,0,0,1,.10645.17968v5.88477h30.57959V355.72391H306.00391a.218.218,0,0,1-.08985-.02051l-.06152-.03028a.20526.20526,0,0,1,.18359-.36718l.01563.00781h13.20215a.205.205,0,0,1,.20507.20508v14.25A.205.205,0,0,1,319.25391,369.97391Z"/><path d="M340.82407,362.66909c0,.97,1.71,1.76,3.81,1.76a6.28894,6.28894,0,0,0,2.95-.64991l.12-.07006a3.91759,3.91759,0,0,1,2.55-.01v6.06982h-31V363.6791a3.90005,3.90005,0,0,0-2.58,0l-.12.06982a6.29261,6.29261,0,0,1-2.95.64014c-2.1,0-3.81-.78-3.81-1.75,0-.96,1.71-1.75,3.81-1.75a6.30311,6.30311,0,0,1,2.96.6499l.11.07007a3.90005,3.90005,0,0,0,2.58,0v-6.09009h13.26c1.17-.45,0-1.18994,0-1.18994l-.16-.04981c-.86-.33007-1.4-.81006-1.4-1.3601,0-.97,1.7-1.75,3.8-1.75s3.81.78,3.81,1.75c0,.55-.55,1.04-1.42,1.3601l-.14.04981s-1.18.74,0,1.18994h13.25v6.13013a3.91759,3.91759,0,0,1-2.55-.01l-.11-.06006a6.17732,6.17732,0,0,0-2.96-.65991C342.53409,360.91909,340.82407,361.70913,340.82407,362.66909Z"/><path d="M381.28418 370.00418h-31a.20506.20506 0 01-.20508-.20508V363.804a.20079.20079 0 01-.02881-.10546.20423.20423 0 01.20362-.20411.29617.29617 0 01.17138.06641.20707.20707 0 01.064.14844V369.594H381.0791V355.75418H350.48926V361.639a.20706.20706 0 01-.064.14843.2961.2961 0 01-.17138.06641.20522.20522 0 01-.17481-.3125V355.5491a.20506.20506 0 01.20508-.20508h31a.20506.20506 0 01.20508.20508v14.25A.20506.20506 0 01381.28418 370.00418zM363.46387 341.344H350.294a.205.205 0 01-.20508-.20507v-5.96a3.96189 3.96189 0 00-2.31934.06446l-.082.05273a6.52308 6.52308 0 01-3.05322.668c-2.25147 0-4.01514-.85937-4.01514-1.95508s1.76367-1.95508 4.01514-1.95508a6.52244 6.52244 0 013.05957.67676l.11914.07422h0a3.90515 3.90515 0 002.27588.03809V326.889a.205.205 0 01.20508-.20508h9.42968a.20508.20508 0 110 .41015H350.499v5.88477a.20554.20554 0 01-.10839.18066.31311.31311 0 01-.062.02246 4.09152 4.09152 0 01-2.68994-.00879l-.15381-.09082a6.1154 6.1154 0 00-2.85058-.61816c-1.9541 0-3.605.707-3.605 1.54492s1.65088 1.54492 3.605 1.54492a6.1117 6.1117 0 002.8501-.61328l.11621-.06836a4.11579 4.11579 0 012.74462-.02734.18346.18346 0 01.03907.02051.204.204 0 01.11474.18359v5.88477h12.96485a.20508.20508 0 110 .41015zM380.50781 341.34012H367.707a.20508.20508 0 110-.41016h12.80078a.20508.20508 0 110 .41016zM315.69708 312.03226c5.20317-.158 10.40634-.22608 15.60951-.34156l15.60952-.19507c10.40634-.11523 20.81268-.10473 31.219-.16333 10.40634.05494 20.81268.04932 31.21906.16089l15.60949.19556c5.20319.11646 10.40635.18457 15.60953.34351-5.20318.15869-10.40634.22705-15.60953.34326l-15.60949.19555c-10.40638.11158-20.81272.106-31.21906.16089-10.40634-.05859-20.81268-.04785-31.219-.16333l-15.60952-.19507C326.10342 312.25809 320.90025 312.19 315.69708 312.03226zM227.27832 226.12625a50.51846 50.51846 0 01-6.82275-.50488.50424.50424 0 01-.18262-.0625c-1.08887-.62989-6.55566-3.84668-7.25928-5.25391a6.68744 6.68744 0 00-3.49414-2.19629c-2.64014-.8623-7.06348-1.22851-13.14892 1.91211a.5.5 0 01-.72657-.5c.04981-.44043 1.312-10.79394 9.62451-12.87207.0918-.01465 2.96045-.45215 4.51465-6.2041 1.67139-6.18262 4.85791-8.2207 7.18506-9.708l.25781-.166c2.12745-1.36719 4.65528-7.24219 5.15577-10.91309.55029-4.0332 6.896-14.53516 18.61914-15.39746 10.00195-.7334 23.35888 6.41308 25.14111 10.82422a2.18224 2.18224 0 01-.51953 2.62695 94.98364 94.98364 0 01-21.89893 20.77637v15.2041a10.5179 10.5179 0 01-3.09619 8.22852C237.79492 224.72 233.31934 226.12625 227.27832 226.12625zm-6.58936-1.48242c9.19629 1.24707 15.66846.09082 19.23536-3.43457a9.66 9.66 0 002.80322-7.45508l-.00391-15.53223a.49931.49931 0 01.22022-.41406 93.61353 93.61353 0 0021.89892-20.72559.47382.47382 0 01.08887-.0957 1.1763 1.1763 0 00.2832-1.52832c-1.64355-4.06738-14.68652-10.89258-24.14062-10.20019-10.99609.80859-17.19922 10.85253-17.70117 14.53418-.47705 3.498-2.95606 9.916-5.606 11.62011l-.26025.166c-2.31153 1.47851-5.188 3.31836-6.75782 9.12793-1.751 6.47754-5.16259 6.91015-5.30713 6.9248-6.18115 1.54981-8.13134 8.51074-8.644 11.0625 5.94141-2.82226 10.34229-2.41211 13.03174-1.53613a7.44771 7.44771 0 014.07861 2.7002C214.34424 220.72977 218.26074 223.2327 220.689 224.64383zM257.91321 311.39752l-.01276.01c-.11938.20874-.23.41455-.35321.62476z"/><path d="M289.71409,268.75917c-1.26-1.76025-2.01-14.63012-2.01-14.63012-1.77-30.52-23.62-35.48-23.62-35.48a6.40863,6.40863,0,0,1-1.1,1.05c-4.42,3.28-13.12,1.77-13.12,1.77s-4.03,1.26-5.42,6.81006c-1.39,5.54981,1.01,21.68994-2.27,20.80982-3.28-.87988-10.61-.77-11.17-23.47,0,0,.01-.08008.04-.22a41.53054,41.53054,0,0,1-10.52-.27s-6.39-3.7-7.06-5.05c-.68-1.33985-6.9-5.87988-17.32-.5,0,0-10.59.97021-21.82,13.20019s-23.07995,35.73-25.6,80.7898l8.72,2.57007c.04-4.69995.29-9.39014.67-14.07007a149.76678,149.76678,0,0,1,2.74-18.93994c1.39-6.2,3.1-12.48,6.37-17.98a49.91186,49.91186,0,0,0-3.24,8.92993c-.85,3.05-1.52,6.15014-2.08,9.26-1.1,6.24-1.87,12.54-2.4,18.8501-.55,6.32006-.85,12.65991-.96,19-.05,3.16992-.02,6.34008.15,9.51.07,1.58007.16,3.15991.36,4.73a22.85221,22.85221,0,0,0,.4,2.33984,7.35511,7.35511,0,0,0,.34,1.13013,4.09522,4.09522,0,0,0,.3.59008l.05.04981a1.7198,1.7198,0,0,0,.35.27s30.54-12.15991,52.46-22.86987c-.05-2.51-.02-5.01-.03-7.5l-.11-7.49c-.19-4.99-.33-9.97-.78-14.93018-.36-4.96-.96-9.90991-1.78-14.81982q-.6-3.6753-1.49-7.31006a48.66154,48.66154,0,0,0-2.2-7.14014,56.08614,56.08614,0,0,1,4.75,14.25c.56,2.4502.93,4.94019,1.32,7.42017.3,2.49.62,4.99.8,7.49.22,2.5.31,5.01.41,7.51.08,2.51.07,5.02.05,7.52l-.29,7.51c-.22,2.5-.39,5-.65,7.49,0,0,2.32,3.74,26.79-.88013,0,0,17.67-4.06006,18.16-4.6499,10.96-19.17994,6.18-33.06006,6.18-33.06006a69.20976,69.20976,0,0,1-1-7.28c-.24-2.43994-.35-4.87988-.41-7.32984-.04-2.45019,0-4.90014.19-7.35009a32.60876,32.60876,0,0,1,1.22-7.27c-.16,2.45-.14,4.87011-.13,7.3.03,2.42993.06,4.8601.12,7.29.07,4.86987.19,9.73.01,14.63989C270.73411,279.609,289.71409,268.75917,289.71409,268.75917Zm-88.65-23.69018a8.30614,8.30614,0,0,0-1.18-1.18994l-1.25-1.09009c-.44-.33984-.92-.61987-1.38-.92993a16.64757,16.64757,0,0,0-6.12-2.36988,22.8398,22.8398,0,0,0-6.61-.25,30.691,30.691,0,0,0-6.54,1.35987,23.02384,23.02384,0,0,1,6.48-1.8999,22.15141,22.15141,0,0,1,6.8.10009,16.23533,16.23533,0,0,1,6.29,2.61988,16.89091,16.89091,0,0,1,4.64,4.88989Z"/><path d="M231.04645,225.39969l2.30658-.45655c.74551-.23754,1.50239-.439,2.22818-.7163a13.82,13.82,0,0,0,3.97143-2.35035,9.92177,9.92177,0,0,0,2.5885-3.71533,9.6846,9.6846,0,0,0,.64936-4.416c-.00165-.01612-.00281-.03785-.00331-.05371-.1157-5.15674-.14644-10.31324-.22384-15.46973a.641.641,0,0,1,.26574-.52979l.02539-.01782c2.05162-1.46264,4.08154-2.95605,6.00914-4.57861,1.952-1.59131,3.80745-3.29712,5.62983-5.032,1.82953-1.72876,3.57677-3.54371,5.25945-5.41236a73.342,73.342,0,0,0,4.75288-5.80664.68467.68467,0,0,1,.06407-.07617l.09736-.09863a.74584.74584,0,0,0,.26883-.52539,1.8513,1.8513,0,0,0-.2689-.84156,8.22705,8.22705,0,0,0-1.60658-1.855,25.22254,25.22254,0,0,0-4.39078-3.01074,41.523,41.523,0,0,0-10.05007-3.92309,28.75113,28.75113,0,0,0-5.28577-.81177,16.36372,16.36372,0,0,0-2.63378.06469,16.7367,16.7367,0,0,0-2.59657.43287,19.321,19.321,0,0,0-2.51759.77417,20.59265,20.59265,0,0,0-2.37175,1.16088,19.6461,19.6461,0,0,0-4.22739,3.19239,22.6398,22.6398,0,0,0-3.35832,4.12573,12.73617,12.73617,0,0,0-1.972,4.7749,24.5687,24.5687,0,0,1-1.70254,5.46753,18.45032,18.45032,0,0,1-2.98218,4.94605c-.17062.18676-.37063.36132-.55588.54-.20861.15771-.45073.34716-.64478.46655l-1.15565.73266a14.03285,14.03285,0,0,0-2.08364,1.634,12.94678,12.94678,0,0,0-2.92251,4.374,23.25652,23.25652,0,0,0-.89146,2.55689,16.99462,16.99462,0,0,1-1.0294,2.66845,9.91648,9.91648,0,0,1-1.657,2.38477,4.89674,4.89674,0,0,1-2.601,1.521l.05326-.00952a10.546,10.546,0,0,0-3.58707,1.63965,12.52319,12.52319,0,0,0-2.77286,2.8855,18.87362,18.87362,0,0,0-1.87122,3.60352,20.07021,20.07021,0,0,0-1.11129,3.93774,20.18581,20.18581,0,0,1,.89125-4.01685,17.63648,17.63648,0,0,1,1.73358-3.75976,13.03968,13.03968,0,0,1,2.76613-3.12988,11.23123,11.23123,0,0,1,3.7631-1.91333l.05365-.00953a4.23188,4.23188,0,0,0,2.03-1.3601,9.23645,9.23645,0,0,0,1.40321-2.21289,15.9668,15.9668,0,0,0,.89749-2.523,24.41543,24.41543,0,0,1,.86447-2.69873,14.17285,14.17285,0,0,1,3.07791-4.85913,15.36143,15.36143,0,0,1,2.22514-1.843l1.16586-.78247c.19558-.12891.309-.2378.46933-.35694.14058-.14843.28906-.28.42566-.43774a17.12744,17.12744,0,0,0,2.58669-4.58911,25.31372,25.31372,0,0,0,1.48376-5.12964,11.15472,11.15472,0,0,1,.311-1.46,10.97083,10.97083,0,0,1,.51149-1.395,19.55482,19.55482,0,0,1,1.3437-2.57007,24.40151,24.40151,0,0,1,3.585-4.48413,21.45471,21.45471,0,0,1,4.56546-3.50781,22.435,22.435,0,0,1,2.59286-1.29492,21.23558,21.23558,0,0,1,2.76807-.87964,18.6705,18.6705,0,0,1,2.86133-.50171,18.30693,18.30693,0,0,1,2.90138-.09522,30.7003,30.7003,0,0,1,5.66627.81787A41.54649,41.54649,0,0,1,259.61,168.76272a27.03116,27.03116,0,0,1,4.70537,3.29468,9.91776,9.91776,0,0,1,1.97057,2.35132,3.58371,3.58371,0,0,1,.4868,1.791,2.60754,2.60754,0,0,1-.93658,1.87231l.16117-.17456a74.792,74.792,0,0,1-4.93907,5.93555c-1.73057,1.8894-3.5238,3.72021-5.3999,5.46313q-2.81388,2.61365-5.84288,4.98047c-2.00032,1.59717-4.102,3.06226-6.22223,4.49219l.291-.54712c-.0774,5.15649-.10814,10.313-.22384,15.46973l-.00328-.05347a10.39369,10.39369,0,0,1-.89271,4.78174,10.50132,10.50132,0,0,1-2.90195,3.81884,13.72112,13.72112,0,0,1-4.191,2.23853c-.75246.24-1.52882.40039-2.28953.59595Z"/><path d="M265.2534,177.44095c-.00293.10205-.133.23047-.21368.36548l-.27422.39062-.55862.77393c-.37084.51782-.76982,1.01318-1.15747,1.51806-.79169.99634-1.59763,1.98267-2.43065,2.94605-1.65646,1.93554-3.42064,3.77856-5.24707,5.55762-1.83286,1.77124-3.7003,3.51684-5.69493,5.11181-1.96439,1.63233-4.03287,3.135-6.12346,4.60523l.25952-.488c.00865,2.57812.05475,5.15649.03265,7.73486l-.04237,7.73487-.00436-.07081a10.42684,10.42684,0,0,1-.88062,4.863,10.671,10.671,0,0,1-2.93588,3.89478,14.13859,14.13859,0,0,1-4.24132,2.29175c-.75874.251-1.54095.42163-2.30931.62719l-2.353.37012.23229-.21484-.04505.2207.00466-.05664.14116,3.68335c.07661,1.22534.20187,2.44726.30034,3.67163a39.68345,39.68345,0,0,0,1.48915,7.18481,14.19922,14.19922,0,0,0,3.57409,6.20508A8.14545,8.14545,0,0,0,239.838,248.094a16.86022,16.86022,0,0,0,1.75558.43726l.46121.10376.22881.051a.62356.62356,0,0,1,.127.009c.14176-.00537.25516-.0896.3909-.2771a8.75239,8.75239,0,0,0,.63054-3.37354c.05191-1.21167.05176-2.43554.03946-3.66162-.02955-2.4541-.1284-4.91748-.13357-7.39892.00218-1.24146.03189-2.48731.14053-3.74781a12.89609,12.89609,0,0,1,.84764-3.77368,9.69658,9.69658,0,0,1,5.32465-5.68115.52162.52162,0,0,1,.26619-.03247l.0722.01025a30.60185,30.60185,0,0,0,6.76064.21509,11.10319,11.10319,0,0,0,6.07768-2.09717,7.44316,7.44316,0,0,0,1.87735-2.55224,15.91951,15.91951,0,0,0,1.12955-3.13916,31.57862,31.57862,0,0,0,.956-6.72657.6646.6646,0,0,1,.45732-.60888l.0141-.0044a1.41723,1.41723,0,0,0,1.15719-1.39892,5.34836,5.34836,0,0,0-.41577-2.35816l-.01274-.03247a.54991.54991,0,0,1-.03354-.2605l.74-6.32763a35.29111,35.29111,0,0,0,.46715-6.25952,23.32988,23.32988,0,0,0-1.17952-6.14332,26.56538,26.56538,0,0,0-1.19833-2.91918c-.23627-.4712-.47866-.94-.74265-1.397l-.40781-.67846-.21484-.33252-.11151-.16309-.05567-.08105C265.24524,177.48392,265.25458,177.47024,265.2534,177.44095Zm-.00363-.14014a22.80551,22.80551,0,0,1,4.66853,11.8562,36.13553,36.13553,0,0,1-.24084,6.42554l-.57326,6.332-.04622-.29248a7.71985,7.71985,0,0,1,.45043,1.41113,5.16113,5.16113,0,0,1,.11953,1.52344,2.64927,2.64927,0,0,1-2.03436,2.51953l.47124-.613a30.7644,30.7644,0,0,1-.86745,7.073,17.317,17.317,0,0,1-1.21365,3.415,8.84794,8.84794,0,0,1-2.221,3.02173,12.46508,12.46508,0,0,1-6.873,2.46875,28.63208,28.63208,0,0,1-7.14725-.26367l.338-.02222a7.35093,7.35093,0,0,0-2.694,1.89063,9.42245,9.42245,0,0,0-1.807,2.91235c-.91594,2.14038-.91,4.592-.98927,7.03711-.04841,2.44726-.00347,4.91138-.02738,7.386-.01186,1.23779-.04072,2.47924-.14082,3.72729-.05739.62524-.11873,1.25073-.236,1.88184a5.38866,5.38866,0,0,1-.66254,1.91211,1.371,1.371,0,0,1-1.12.6311c-.11125-.0105-.223-.02539-.332-.04419l-.22048-.05664-.437-.11353a18.63037,18.63037,0,0,1-1.81362-.51416,8.85239,8.85239,0,0,1-3.2637-1.97241,15.54818,15.54818,0,0,1-3.60286-6.52856,42.93408,42.93408,0,0,1-1.45042-7.28223c-.11669-1.23-.26013-2.459-.35465-3.69116l-.19436-3.70142a.21182.21182,0,0,1,.00314-.04931l.00156-.00782.04277-.22583a.26552.26552,0,0,1,.2128-.21167l.01971-.00341,2.28893-.41309c.73783-.22754,1.48889-.4187,2.20834-.6853a13.38933,13.38933,0,0,0,3.92111-2.29688,9.67229,9.67229,0,0,0,3.21593-7.97412l-.00257-.03052-.00181-.04052-.04237-7.73487c-.0221-2.57837.024-5.15674.03265-7.73486a.60157.60157,0,0,1,.25967-.48853c2.08127-1.4226,4.14443-2.87817,6.108-4.46557,1.97734-1.56836,3.91238-3.19458,5.77783-4.90088,1.87921-1.69263,3.6555-3.49512,5.41231-5.31763.87677-.91333,1.728-1.85107,2.56674-2.80078C263.61,179.27591,264.36072,178.35867,265.24977,177.30081Z"/><path d="M251.4882 191.916a21.36007 21.36007 0 015.91166-.1228 17.18522 17.18522 0 015.70782 1.552c-1.94592-.355-3.84962-.65039-5.78515-.8562C255.39081 192.26858 253.4545 192.12137 251.4882 191.916zM258.18924 198.55789a1.05158 1.05158 0 000-2.1019 1.05158 1.05158 0 000 2.1019zM271.179 193.34524a22.9876 22.9876 0 00-2.36144.07911l-2.3497.17407.26454-.17774a7.8514 7.8514 0 00-.4928 2.21363 7.9415 7.9415 0 00.13237 2.2771 11.39694 11.39694 0 00.7649 2.19653 9.5695 9.5695 0 00.53872 1.0415c.21349.30054.44658.7.855.70606-.42982.10327-.77458-.28809-1.04414-.55982a6.0724 6.0724 0 01-.72366-.99145 8.7576 8.7576 0 01-1.00475-2.24536 7.39607 7.39607 0 01-.21573-2.48267 7.28455 7.28455 0 01.62467-2.42554l.0025-.00537a.29965.29965 0 01.26231-.17236c.79726-.02344 1.58946-.01172 2.38437.03467A11.52764 11.52764 0 01271.179 193.34524z"/><path d="M267.96305 198.74706a1.05158 1.05158 0 000-2.1019 1.05158 1.05158 0 000 2.1019zM258.6937 209.99222l2.20883 1.19165a13.71136 13.71136 0 002.23372.959 2.02646 2.02646 0 002.03906-.16992 3.95518 3.95518 0 00.68837-2.23291 3.17931 3.17931 0 01-.27159 2.58667 1.79129 1.79129 0 01-1.29868.66113 3.8972 3.8972 0 01-1.35821-.17431 8.78375 8.78375 0 01-2.312-1.16211A11.08953 11.08953 0 01258.6937 209.99222zM261.02679 202.993a11.50614 11.50614 0 00.01113 1.64038 4.563 4.563 0 00.49333 1.51245 1.4826 1.4826 0 01-.80383-.51489 1.73626 1.73626 0 01-.38484-.915A1.91656 1.91656 0 01261.02679 202.993zM243.22375 213.69144a15.60939 15.60939 0 011.74595 1.97192l.779 1.0188a11.14275 11.14275 0 00.8381 1.00293 2.73671 2.73671 0 01-1.22659-.61841 5.83123 5.83123 0 01-.9438-.97412A6.4194 6.4194 0 01243.22375 213.69144zM268.52005 205.81277c.46613 2.78052.74034 5.5459 1.09074 8.29663.17392 1.37281.34592 2.74756.59406 4.09986a20.20254 20.20254 0 00.45575 2.00464 5.50007 5.50007 0 00.83369 1.876 7.38649 7.38649 0 01-2.04847-3.69946 27.08451 27.08451 0 01-.82676-4.15723A36.84115 36.84115 0 01268.52005 205.81277zM151.78143 314.47317a42.91373 42.91373 0 01-.341 5.81324 42.41375 42.41375 0 01-1.03631 5.73046 42.41664 42.41664 0 01.341-5.81347A42.92116 42.92116 0 01151.78143 314.47317zM158.15155 327.3638q-4.73922-.49988-9.46247-1.11182l.2416-.1206a84.6434 84.6434 0 00-3.47786 8.209c-1.00784 2.80029-1.93584 5.63037-2.75664 8.49317-.78522 2.87158-1.52925 5.75805-2.13242 8.67749-.62823 2.91479-1.11767 5.85717-1.594 8.80859.25941-2.97583.59834-5.95264 1.14438-8.896.48075-2.95605 1.18936-5.86963 1.95787-8.76391a87.56155 87.56155 0 012.76909-8.54761 65.16876 65.16876 0 013.67325-8.20972.23808.23808 0 01.2419-.12085Q153.461 326.52347 158.15155 327.3638zM162.36422 339.57669a53.054 53.054 0 002.0587 7.91406 35.21709 35.21709 0 003.35294 7.40821 28.27286 28.27286 0 005.13517 6.23388 30.21774 30.21774 0 006.66208 4.53589 28.7816 28.7816 0 0015.67509 2.69214c.66267-.1001 1.33829-.12036 1.99008-.28491l1.96568-.42749 3.9431-1.08228c2.6201-.75928 5.22916-1.55542 7.8193-2.40991q7.76484-2.57848 15.35273-5.6582c5.0537-2.05909 10.02048-4.32764 14.95371-6.66748 4.93249-2.34351 9.78711-4.854 14.58818-7.46412 4.81184-2.5913 9.543-5.33374 14.23031-8.14794l-.02226.01538a29.14748 29.14748 0 019.77206-4.12378 37.87031 37.87031 0 0110.54876-.92359 41.32559 41.32559 0 0110.42454 1.87036 19.35057 19.35057 0 002.51619.65967 5.85511 5.85511 0 002.49286-.13476 2.67251 2.67251 0 001.70833-1.55518 5.59877 5.59877 0 00.27928-2.45264l-.00024-.01a.34141.34141 0 01.10073-.25 13.7 13.7 0 001.54155-1.84033 9.76741 9.76741 0 001.14867-2.08691 5.68673 5.68673 0 00.44125-2.25733 4.24483 4.24483 0 00-.71136-2.102.40162.40162 0 01.11732-.55566l.03771-.02173a12.57122 12.57122 0 002.803-1.94116 6.16454 6.16454 0 001.824-2.71094 4.77572 4.77572 0 00.13855-.77759c-.01112-.27148.014-.50195-.024-.81592-.05522-.594-.091-1.19042-.11914-1.78808a19.45792 19.45792 0 01.12655-3.65039.3939.3939 0 01.098-.207l.03209-.03565a18.91991 18.91991 0 004.37607-7.69018 9.08852 9.08852 0 00.13185-4.302 4.00248 4.00248 0 00-.2906-1.03028 9.88391 9.88391 0 00-.40952-.99072 7.657 7.657 0 00-1.18646-1.709 3.53927 3.53927 0 00-3.63641-.72876 3.4927 3.4927 0 00-1.53441 1.15284 17.68247 17.68247 0 00-1.16582 1.87085 44.68522 44.68522 0 00-1.965 4.09619 6.8884 6.8884 0 01-3.40707 3.62158 8.81662 8.81662 0 01-4.88518.59131 11.78537 11.78537 0 01-4.59265-1.58154 12.70156 12.70156 0 01-5.68455-7.646c-.10445-.39331-.16742-.79712-.25145-1.19556l-.13512-1.2146-.15881-2.27734c-.12593-1.51465-.291-3.02466-.53542-4.51172a21.41191 21.41191 0 00-1.0863-4.29809 4.42259 4.42259 0 00-1.01953-1.64625 1.00172 1.00172 0 00-1.29784-.05908l-.21611.08155a2.235 2.235 0 00-.36871.17578 4.10147 4.10147 0 00-.44.29687 6.55633 6.55633 0 00-.80705.79517 10.765 10.765 0 00-1.28891 2.00122 20.79309 20.79309 0 00-1.59488 4.67114 43.38568 43.38568 0 00-.82723 4.95654c-.16606.8711-.278 1.75708-.49685 2.61524l-.40494 1.26831a7.03873 7.03873 0 01-.47347 1.24 23.05025 23.05025 0 01-6.388 8.25977 34.22928 34.22928 0 01-8.88206 5.39282.47436.47436 0 01-.04967.0166c-8.47307 2.261-16.99963 4.26758-25.61586 5.88135-4.30858.7937-8.64206 1.48974-13.01537 1.8623a54.58138 54.58138 0 01-6.57933.209c-.54937-.01587-1.098-.04908-1.64517-.11744a13.987 13.987 0 01-1.63339-.24609 6.03925 6.03925 0 01-2.99783-1.34912.07013.07013 0 01-.00018-.09912.07256.07256 0 01.1.00073 5.88324 5.88324 0 002.942 1.2251 13.71853 13.71853 0 001.61481.19946c.54075.05322 1.08416.072 1.629.07324a54.24024 54.24024 0 006.5224-.38037c4.33409-.50561 8.63841-1.2605 12.923-2.10522 8.56167-1.729 17.05333-3.85474 25.45411-6.22437l-.0493.01636a33.133 33.133 0 008.46521-5.30957 21.73726 21.73726 0 005.91715-7.856 6.188 6.188 0 00.434-1.14624l.37166-1.16894c.199-.79126.29588-1.6062.45254-2.408a44.78343 44.78343 0 01.84436-5.13086 22.17706 22.17706 0 011.69747-4.991 12.16033 12.16033 0 011.47328-2.291 7.949 7.949 0 011.01186-.99732 4.07579 4.07579 0 011.41566-.75757l-.21573.0813a2.84873 2.84873 0 011.484-.39966 2.4183 2.4183 0 011.48111.61011 5.72428 5.72428 0 011.4279 2.20313 22.73493 22.73493 0 011.185 4.60742c.257 1.5415.4289 3.085.56107 4.62842q.09831 1.15758.16592 2.31543l.11292 1.07348c.07437.35205.12543.70947.21582 1.05762a11.25719 11.25719 0 004.98712 6.79761 10.38 10.38 0 004.04109 1.41894 7.4739 7.4739 0 004.13851-.44971 5.53262 5.53262 0 002.76074-2.92944 45.95037 45.95037 0 012.04367-4.18921 18.58406 18.58406 0 011.28363-2.02295 4.71932 4.71932 0 017.02913-.52539 9.70293 9.70293 0 011.978 9.19483 19.89763 19.89763 0 01-4.74658 8.09985l.1299-.24219a19.00747 19.00747 0 00-.15453 3.41846c.01959.58228.04646 1.165.09276 1.748a9.51811 9.51811 0 01.01266.95361 5.61911 5.61911 0 01-.18334.959 6.99664 6.99664 0 01-2.10581 3.07666 13.33848 13.33848 0 01-3.032 2.03736l.155-.57715a4.99865 4.99865 0 01.81636 2.5249 6.40244 6.40244 0 01-.52826 2.54761 10.45487 10.45487 0 01-1.2576 2.21216 14.303 14.303 0 01-1.65491 1.91626l.10034-.25952a6.18031 6.18031 0 01-.364 2.7417 3.26746 3.26746 0 01-2.09164 1.85595 6.381 6.381 0 01-2.74056.11743 20.16557 20.16557 0 01-2.585-.69091 40.84979 40.84979 0 00-10.3024-1.90552 35.20728 35.20728 0 00-10.42.90576 28.73871 28.73871 0 00-9.55905 4.10376l-.016.01123-.00657.00415c-9.33786 5.71-18.80616 11.23853-28.62993 16.10889a215.02333 215.02333 0 01-30.39284 12.53369c-2.61107.84155-5.24048 1.62451-7.88005 2.36987l-3.97708 1.0625-2.04649.43115c-.67849.16456-1.38114.18409-2.07039.28247a28.0395 28.0395 0 01-8.32066-.312 30.7758 30.7758 0 01-7.87609-2.666 29.05221 29.05221 0 01-11.91254-11.26953 35.71349 35.71349 0 01-3.18831-7.60132 53.2976 53.2976 0 01-1.84445-8.00977.0701.0701 0 01.05934-.07934A.07269.07269 0 01162.36422 339.57669z"/><path d="M308.63472 312.64871A20.84884 20.84884 0 00312.375 311.094a9.41041 9.41041 0 003.06328-2.447l.007-.00928a.35089.35089 0 01.56082.42188l-.01981.02393a9.89768 9.89768 0 01-3.45749 2.32519A21.00846 21.00846 0 01308.63472 312.64871zM263.771 296.01224c.35821 1.03149.7697 2.02978 1.19262 3.01489a30.17632 30.17632 0 001.43644 2.86084 20.18981 20.18981 0 001.81471 2.61059 15.71119 15.71119 0 002.33731 2.20362 8.95349 8.95349 0 01-2.7374-1.83106 13.317 13.317 0 01-2.02014-2.63159A15.75532 15.75532 0 01263.771 296.01224zM288.32407 269.52919c.68 1.25 1.32 2.50977 1.99 3.75977l-.41.16016C289.3541 272.14907 288.82407 270.849 288.32407 269.52919zM305.96409 302.21913a5.92945 5.92945 0 01-1.71-1.60009c-.49-.6001-.95-1.24-1.4-1.87989-.52-.77-1.01-1.55-1.49-2.34008l.61-.25c.42.78.85 1.56006 1.3 2.33007.38.66993.77 1.33985 1.19 1.99A6.79639 6.79639 0 00305.96409 302.21913zM444.05338 247.96146a24.453 24.453 0 00-3.12641-8.07764 5.57983 5.57983 0 00-3.00622-2.64527 9.01125 9.01125 0 00-4.11118-.05883c-1.41284.23242-2.83105.6145-4.30206.89111a14.1325 14.1325 0 01-2.27915.27979 4.76806 4.76806 0 01-2.43219-.49683 4.31028 4.31028 0 01-1.78668-1.79273 7.54589 7.54589 0 01-.744-2.26416c-.06842-.36718-.11721-.77075-.17944-1.05664a3.04642 3.04642 0 00-.36932-.833 8.763 8.763 0 00-1.27808-1.60645l.35309-.90332a.02747.02747 0 00-.04056.00293c.00629 0 .04376-.02515.06528-.03467a1.20684 1.20684 0 00.18725-.12549 4.82318 4.82318 0 00.41458-.365c.2764-.26611.54587-.5581.808-.85766.52508-.5979 1.03232-1.22974 1.51779-1.86377l.5672.5542a1.54085 1.54085 0 01-.28058.12475l-.19717.03736c-.13288.02465-.23966.02441-.36051.03711-.22931.01147-.45367.01611-.67483.01294-.44318-.00416-.88037-.02271-1.31616-.04908-.87226-.04956-1.736-.13012-2.60407-.21093a.27921.27921 0 01-.23388-.17481 9.93318 9.93318 0 00-.45456-1.03223c-.16987-.31591-.37241-.68457-.59989-.77368-.67569-.25854-1.46133-.428-2.20032-.63476a20.49059 20.49059 0 01-2.272-.69361.856.856 0 01-.44214-.5813 1.68593 1.68593 0 01-.00262-.66235 4.87319 4.87319 0 01.37576-1.15625 27.812 27.812 0 012.42325-4.01416 7.42222 7.42222 0 001.01538-1.98633 4.13939 4.13939 0 00.17148-2.0852l.01114.0332a18.129 18.129 0 01-.99948-3.90478 34.1822 34.1822 0 01-.378-3.97559 62.32149 62.32149 0 01.1907-7.95923.6433.6433 0 011.23935-.1792l.01111.02857a42.44618 42.44618 0 002.75726 5.67944 32.00091 32.00091 0 003.63858 5.10669 14.433 14.433 0 004.79215 3.70776 7.98881 7.98881 0 005.76953.304l-.45181.5415a12.38224 12.38224 0 01.7723-2.60547 5.76156 5.76156 0 011.64713-2.32153 5.23382 5.23382 0 01.67892-.40063 5.13227 5.13227 0 01.78165-.20386 5.37044 5.37044 0 01.78986.03125 3.43174 3.43174 0 01.71991.21167 2.24847 2.24847 0 01.64776.31372l.59894.37012c.3512.28784.6871.5896 1.02466.88818a.43289.43289 0 01.11349.16064 26.1261 26.1261 0 011.10062 3.428 15.52754 15.52754 0 01.49622 3.57642 4.58142 4.58142 0 01-1.20112 3.42993 4.09311 4.09311 0 01-3.47506.68823.07012.07012 0 01-.05783-.08056.07124.07124 0 01.07559-.05835 3.93848 3.93848 0 003.16995-.84912 4.12973 4.12973 0 00.83365-3.11426 14.81116 14.81116 0 00-.648-3.37305 25.25958 25.25958 0 00-1.22223-3.23242l.11328.1604-.9432-.75195-.50153-.28565a1.50215 1.50215 0 00-.50537-.22729 1.72687 1.72687 0 00-1.854.25439 4.60755 4.60755 0 00-1.20794 1.86963 11.15828 11.15828 0 00-.61057 2.31836.6827.6827 0 01-.44287.53857l-.00915.00318a9.21124 9.21124 0 01-6.78376-.23267 15.14439 15.14439 0 01-5.32653-4.06763 30.61987 30.61987 0 01-3.74469-5.40234 43.6719 43.6719 0 01-2.75132-5.93481l1.25037-.15064a68.83822 68.83822 0 00-.40189 7.79175 38.86086 38.86086 0 00.20093 3.885 16.82162 16.82162 0 00.77979 3.75928l.0093.02612.002.00757a6.08314 6.08314 0 01-1.44638 4.57983 25.98079 25.98079 0 00-2.44336 3.8916 4.46247 4.46247 0 00-.35886 1.041c-.07175.35059-.02969.68188.21677.79956a19.04048 19.04048 0 002.17438.63818c.75509.19971 1.48944.35694 2.273.62085a2.08754 2.08754 0 01.86721.97071 10.45067 10.45067 0 01.51484 1.07861l-.23362-.17456c.85862.051 1.72376.07715 2.58231.08594.4295.00439.8584.00073 1.281-.01661.21177-.00756.42008-.02294.62247-.043.0936-.01514.20459-.02222.28342-.04322l.12094-.02783c.01352-.01025.00583-.01025.01752-.00317l.51532.3125a.17014.17014 0 01.05725.23364l-.00531.0083c-.46814.68042-.94651 1.34058-1.46283 1.98926-.25745.32446-.52356.6438-.81739.95605a5.77869 5.77869 0 01-.47821.46216 2.16967 2.16967 0 01-.30831.22656 1.0541 1.0541 0 01-.53849.18433l.35306-.90308a9.79331 9.79331 0 011.54413 1.76075 4.05321 4.05321 0 01.54236 1.16088c.10272.429.14419.75586.22073 1.10816a4.25884 4.25884 0 001.92539 3.17212 6.355 6.355 0 003.92181.16577c1.41989-.23779 2.84927-.59473 4.33932-.812a9.271 9.271 0 014.6.22656 5.97147 5.97147 0 011.08295.52661 5.79267 5.79267 0 01.91321.77735 6.27636 6.27636 0 01.73242.90576c.22766.30444.41705.6311.61282.95312a17.92389 17.92389 0 011.73792 4.11841 23.61568 23.61568 0 01.87417 4.34424.06981.06981 0 01-.06289.07641A.07329.07329 0 01444.05338 247.96146z"/><path d="M471.99412,215.15908c-1.14-3.28-9.21-12.23-11.6-13.3,0,0-.25-10.03-3.91-12.55,0,0,8.83-7.43994-1.26-13.75,0,0-8.71-4.02979-8.96,6.93994,0,0-20.68-2.26978-30.14,14.63013,0,0,6.01,18.7,17.78,15.22,0,0,1.18-8.36988,6.65-3.45,0,0,4.87,9.91992-1.52,11.52a9.81467,9.81467,0,0,0-.92,6.88989c.92,3.87012-.6,9.3-.6,9.3s-3.86,13.74,7.49,11.34009c11.35-2.39014,29.26-8.57007,32.41-21.06006C477.4141,226.88906,473.12412,218.43911,471.99412,215.15908Zm-20.06-30.77a7.56417,7.56417,0,0,1,1.53,1.24,2.72993,2.72993,0,0,1,.87,1.79,5.20745,5.20745,0,0,0-1.38-1.2c-.51-.33007-1.01-.66015-1.54-.97021a27.36,27.36,0,0,1-3.13-2.11987A8.88268,8.88268,0,0,1,451.93412,184.38906Zm6.74,22.22a18.96643,18.96643,0,0,1-3.74,4.38989,25.57013,25.57013,0,0,1-4.75,3.21021,24.37225,24.37225,0,0,1-5.3,2.09008c1.7-.83008,3.32-1.78027,4.91-2.76025a37.4536,37.4536,0,0,0,4.49-3.29,24.71793,24.71793,0,0,0,3.73-4.05981,17.858,17.858,0,0,0,2.34-5.04A12.88247,12.88247,0,0,1,458.67411,206.609Z"/><path d="M417.639 212.38846a5.37174 5.37174 0 012.17315-1.88892 4.78888 4.78888 0 011.41095-.43237 2.86314 2.86314 0 011.46042.17724 9.548 9.548 0 00-2.56622.8855C419.30347 211.5181 418.52136 211.97586 417.639 212.38846zM420.79181 216.08769a1.05158 1.05158 0 000-2.1019 1.05158 1.05158 0 000 2.1019zM477.4176 226.85647a44.80592 44.80592 0 0114.04566 3.238 60.427 60.427 0 0112.72445 6.86841 73.51243 73.51243 0 0119.48008 21.17578l1.87008 3.09253 1.73746 3.168c.60718 1.0415 1.11575 2.134 1.65243 3.2124.5156 1.08814 1.10456 2.14307 1.56 3.259.96643 2.20679 1.94947 4.408 2.77063 6.67457.90677 2.23486 1.65253 4.52661 2.41379 6.814.40186 1.13745.73483 2.29541 1.06256 3.45532l1.00092 3.4751c.60611 2.33423 1.14709 4.6897 1.70236 7.03784l2.279 14.26416a.36545.36545 0 01-.28189.41358l-10.2814 2.25586L520.857 317.44729l-10.29681 2.186-10.3092 2.12988a.03513.03513 0 01-.01511-.0686l10.24728-2.41016 10.25968-2.354 10.25976-2.35376 10.27509-2.28442-.28177.41333L538.772 298.45145c-.53286-2.33741-1.06122-4.676-1.63543-7.00538L536.194 287.97c-.30841-1.16089-.62207-2.32031-1.00455-3.45874A105.479 105.479 0 00523.42783 258.291a83.35927 83.35927 0 00-8.80329-11.37133 71.64561 71.64561 0 00-10.78225-9.47 59.91377 59.91377 0 00-12.53235-6.97071 56.89819 56.89819 0 00-6.81778-2.27783 38.558 38.558 0 00-7.07608-1.27466.03523.03523 0 01-.03528-.03491A.03728.03728 0 01477.4176 226.85647z"/><path d="M537.58969 313.48074a30.40015 30.40015 0 011.46738 4.67383 30.05309 30.05309 0 01.786 4.83545 30.05629 30.05629 0 01-1.46738-4.67383A30.412 30.412 0 01537.58969 313.48074zM474.51624 255.64529a29.75467 29.75467 0 013.24209-5.60644 28.86133 28.86133 0 014.389-4.80908 18.88433 18.88433 0 015.60821-3.34327 15.534 15.534 0 013.19028-.73046 13.56106 13.56106 0 013.24414.1123 15.02138 15.02138 0 00-6.24127 1.12109 19.78211 19.78211 0 00-5.3479 3.37329 32.00875 32.00875 0 00-4.41611 4.60157A47.28674 47.28674 0 00474.51624 255.64529zM512.09811 251.10525a18.11971 18.11971 0 013.23728 3.116A20.64761 20.64761 0 01517.81354 258a17.14644 17.14644 0 011.53164 4.2583 15.0336 15.0336 0 01.31977 4.48511c-.13843-.74121-.13782-1.48438-.33054-2.20459l-.209-1.08521-.30231-1.06152a23.09011 23.09011 0 00-1.634-4.0752 30.36661 30.36661 0 00-2.27945-3.769A34.05231 34.05231 0 00512.09811 251.10525zM472.56192 263.24173c-1.03647 2.53589-2.092 5.063-3.19028 7.57031-1.10669 2.50317-2.16647 5.02832-3.31549 7.51172l-3.39444 7.4751c-1.14847 2.48364-2.31939 4.957-3.53674 7.40869l-.18015-.6814 8.731 6.54029c2.91669 2.17114 5.89008 4.26245 8.87406 6.33886 2.97579 2.08814 6.00155 4.10572 9.01171 6.14527 3.02069 2.02465 6.008 4.09643 9.00016 6.16113l-.84449.08911a114.09526 114.09526 0 007.43-9.57666c2.31781-3.31445 4.52969-6.70508 6.51532-10.22559a83.7841 83.7841 0 005.20425-10.93188 53.30893 53.30893 0 002.94482-11.752.07.07 0 01.07608-.06348.07262.07262 0 01.06379.072A45.528 45.528 0 01513.755 287.378a76.50176 76.50176 0 01-4.88259 11.28564 97.64758 97.64758 0 01-6.509 10.4231 109.35209 109.35209 0 01-7.70053 9.583.64.64 0 01-.84479.08911c-2.93515-2.14527-5.87515-4.28345-8.78176-6.46875-2.91715-2.17066-5.8187-4.363-8.77024-6.48511-2.94333-2.13354-5.89728-4.25244-8.9079-6.29126l-9.051-6.08984a.53392.53392 0 01-.19144-.65625l.01117-.02539c1.09476-2.50879 2.2359-4.99585 3.39951-7.47266l3.54178-7.40625c1.16308-2.47705 2.41537-4.91235 3.62075-7.36963 1.21378-2.45337 2.47034-4.88672 3.74595-7.311a.07012.07012 0 01.127.05908zM430.42392 237.303q-1.45143 8.25036-3.09113 16.46509c-1.10257 5.47412-2.22058 10.946-3.49356 16.387-.64282 2.71582-1.32586 5.43677-2.1726 8.10278l-2.56272 7.97534a62.63838 62.63838 0 00-2.06808 8.09375 23.3721 23.3721 0 00-.38184 4.13965 11.3834 11.3834 0 00.78208 4.01587l-.35248.00366a23.725 23.725 0 015.42007-7.3667 24.95733 24.95733 0 017.72391-4.93457c.70975-.293 1.45474-.49389 2.181-.74487.36743-.11157.72626-.25732 1.101-.34033l1.12876-.23169c.75491-.1377 1.50085-.346 2.26394-.42456l2.29444-.20093a14.15984 14.15984 0 012.29767-.04053l2.29879.06348c1.52274.14575 3.03656.386 4.55469.57544l-.41186.42578c-1.05683-5-1.88318-10.03711-2.60883-15.09058a103.29039 103.29039 0 01-1.23944-15.2517.035.035 0 01.0354-.03467.03548.03548 0 01.03467.03467c.0545 2.54858.31021 5.085.59582 7.614.2768 2.531.65048 5.05151 1.04743 7.56665.39831 2.51538.84945 5.02246 1.32635 7.52417.48633 2.499.98154 4.99976 1.50559 7.48706a.35726.35726 0 01-.276.42334.35188.35188 0 01-.1149.00537l-.02115-.00268c-1.49371-.17994-2.9837-.41187-4.4794-.55079l-2.253-.05419a13.68357 13.68357 0 00-2.2482.04663l-2.24277.18261c-.74637.06983-1.47314.26831-2.21115.39576l-1.10346.21606c-.36642.07739-.716.21728-1.075.32275-.709.239-1.43793.42774-2.13165.70728a25.45151 25.45151 0 00-7.59955 4.71655 23.3012 23.3012 0 00-5.43906 7.10791l-.00762.01587a.18873.18873 0 01-.345-.012 11.70841 11.70841 0 01-.73245-4.16846 26.62368 26.62368 0 01.44046-4.18359 77.16613 77.16613 0 012.07874-8.12256c.81256-2.67261 1.66092-5.333 2.42077-8.01587.782-2.67627 1.3862-5.39258 1.98059-8.12036l7.08194-32.73633a.035.035 0 01.06873.01343z"/><path d="M418.28537 300.63553c.25076 1.08642.55261 2.1477.86942 3.196a22.54964 22.54964 0 001.15927 3.04907 11.55732 11.55732 0 001.68792 2.73243 7.37716 7.37716 0 002.57325 1.94262 5.68722 5.68722 0 01-2.97171-1.56836 9.31064 9.31064 0 01-1.924-2.81054 14.53772 14.53772 0 01-1.05178-3.208A14.81157 14.81157 0 01418.28537 300.63553zM448.28461 289.19168a31.19313 31.19313 0 014.295 2.48437 30.84462 30.84462 0 013.90243 3.06446 30.81864 30.81864 0 01-4.29495-2.48462A31.19045 31.19045 0 01448.28461 289.19168zM368.66483 332.743a6.80709 6.80709 0 011.66128-1.26856 2.99053 2.99053 0 012.09857-.36816 2.88827 2.88827 0 011.68506 1.39673c.16977.32056.32291.65332.462.98779l.32122 1.02954a.35091.35091 0 01-.67.209l-.00748-.02783-.00814-.03687-.218-.98218c-.10138-.31372-.215-.62695-.34219-.92993a2.4582 2.4582 0 00-1.32-1.30957 2.73117 2.73117 0 00-1.92575.1897A6.71347 6.71347 0 00368.66483 332.743zM360.64957 333.70975A48.60318 48.60318 0 00363.7 329.38357a24.29049 24.29049 0 001.28568-2.31567 7.91651 7.91651 0 00.82058-2.50977 7.99842 7.99842 0 01-.66 2.57984 24.5192 24.5192 0 01-1.14255 2.42016 49.06079 49.06079 0 01-2.79352 4.57178.35055.35055 0 11-.5784-.39624l.013-.01782zM359.1236 331.0076l6.68264-11.21851-6.07132 11.56079a.35045.35045 0 01-.62051-.32592zM362.39615 321.53714l4.419-6.114-3.83274 6.49756a.35072.35072 0 11-.60412-.35644z"/><path d="M164.549,348.38968c-8.84111,4.60962-17.74212,9.09643-26.61435,13.64233l-13.35149,6.73047-13.36114,6.71069-.50284-2.17334,14.9548-.18652,14.95487-.11572,29.90981-.16113c19.93989-.08472,39.8799-.0625,59.8202.2207l29.91032.33862,14.95519.17236,14.95509.09961c19.94008.0918,39.87993-.03955,59.81976-.1792l59.81923-.70361,29.9097-.26123,29.90982-.16382q59.81951-.431,119.63989-.01831l-.80624,2.97754-23.66306-14.11279c-7.89813-4.68653-15.74786-9.45557-23.616-14.19312l-23.58045-14.2539L494.10144,318.3865a.17517.17517,0,0,1,.17706-.30224l24.03412,13.47949L542.277,345.16214c7.98013,4.54639,15.97867,9.06152,23.9288,13.65918l23.88174,13.7395a1.59512,1.59512,0,0,1-.77755,2.97754h-.02869q-59.81937.56763-119.63968.23389l-29.91009-.10083-29.91019-.198-59.82059-.57739c-19.94008-.09791-39.88016-.187-59.82-.05347l-14.95485.13135-14.95478.20385-29.90956.40161c-19.93964.32544-39.87957.38941-59.8196.34693l-29.91008-.09815-14.95508-.08422-14.95516-.155-.02648-.00025a1.14129,1.14129,0,0,1-.47637-2.17285l13.51478-6.39551,13.52444-6.37573c9.04506-4.19165,18.06133-8.44214,27.13749-12.56982a.17525.17525,0,0,1,.15355.31494Z"/><polygon points="110.72 385.29 170.54 384.779 230.36 384.485 350 384.241 469.64 384.482 529.46 384.776 589.28 385.29 529.46 385.804 469.64 386.099 350 386.34 230.36 386.095 170.54 385.801 110.72 385.29"/><path d="M459.239 293.41043a67.26359 67.26359 0 01-12.968 14.91577 51.95829 51.95829 0 01-17.09037 10.13159 45.92724 45.92724 0 01-9.777 2.188 48.082 48.082 0 01-5.01035.26538l-2.4884-.07788-2.469.00806-19.74933.0769a.72033.72033 0 01-.28408-.05908c-5.33063-2.3291-10.66733-4.65527-16.01972-6.92139-1.3251-.55224-2.708-1.15185-3.987-1.62256l-.21512-.075c-.03326.00367-.01623.02149-.0271.00635a1.22426 1.22426 0 00-.29989.10523 3.891 3.891 0 00-.776.49853 9.59957 9.59957 0 00-1.445 1.429 14.12339 14.12339 0 00-3.24609 7.51757.72979.72979 0 01-.11014.31421c-.6052.94361-1.20157 1.89063-1.75989 2.85254a20.66151 20.66151 0 00-1.43948 2.93262 6.24251 6.24251 0 00-.36508 1.45508 2.72021 2.72021 0 00.23684 1.30688 33.98431 33.98431 0 011.63123 3.00073.73689.73689 0 01.025.44776l-.00155.00561a7.07613 7.07613 0 00-.20282 1.94483 4.39077 4.39077 0 00.42749 1.81152 2.688 2.688 0 001.22049 1.23 4.93458 4.93458 0 001.812.51319l-.139.00122a18.17733 18.17733 0 002.75534-.59522 15.39842 15.39842 0 002.62473-1.02222 10.442 10.442 0 002.27151-1.5354 6.81593 6.81593 0 001.52939-2.13549.70786.70786 0 011.32211.0813l.00507.0166a9.8186 9.8186 0 002.1333 3.71362 9.32922 9.32922 0 003.54849 2.40918 12.33437 12.33437 0 004.32318.63281c.74012-.01709 1.48337-.14624 2.22531-.21094l2.20508-.49218.0253-.00562a.75017.75017 0 01.37216.0127 118.607 118.607 0 0013.4542 3.04248 137.167 137.167 0 0013.7239 1.64087 112.44216 112.44216 0 0027.516-1.35205 86.24756 86.24756 0 0013.28153-3.6084l3.20743-1.24683 3.13153-1.42261c1.06885-.42431 2.05969-1.00512 3.08841-1.51391a33.43058 33.43058 0 003.01614-1.65845 61.58942 61.58942 0 0011.06082-8.21387l2.494-2.40185c.78317-.84668 1.53879-1.72071 2.31088-2.5813l1.15219-1.29736 1.0492-1.38111 2.10168-2.76636-1.98947 2.85035-.99637 1.42749-1.10189 1.34643c-.73942.89429-1.464 1.80371-2.218 2.688l-2.41266 2.5188a62.4302 62.4302 0 01-10.86377 8.76611A58.5037 58.5037 0 01458.52 341.521a87.64628 87.64628 0 01-13.50891 3.67041 113.8273 113.8273 0 01-27.86585 1.37207 138.6166 138.6166 0 01-13.86349-1.65747 119.77676 119.77676 0 01-13.64038-3.08741l.39706.00708-2.34781.52368c-.80511.0752-1.60318.21021-2.41507.2295a13.7078 13.7078 0 01-4.85144-.71973 10.73537 10.73537 0 01-4.09707-2.77954 11.113 11.113 0 01-2.45658-4.31714l1.327.0979a8.19927 8.19927 0 01-1.871 2.62695 11.81413 11.81413 0 01-2.59314 1.759 16.76539 16.76539 0 01-2.8595 1.11523 19.39637 19.39637 0 01-3.0007.64453l-.01483.002a.48286.48286 0 01-.12454-.00074 6.30867 6.30867 0 01-2.35587-.67846 4.09555 4.09555 0 01-1.79645-1.82032 5.77711 5.77711 0 01-.58105-2.39819 8.36957 8.36957 0 01.2557-2.38281l.02341.45312c-.37408-.99218-1.0213-1.76611-1.6084-2.94726a4.14906 4.14906 0 01-.35608-1.99219 7.545 7.545 0 01.44593-1.82593 21.90746 21.90746 0 011.54062-3.1499c.57678-.99365 1.185-1.95923 1.80035-2.91846l-.11.31372a15.50915 15.50915 0 013.56876-8.28393 10.96819 10.96819 0 011.6553-1.63135 5.20721 5.20721 0 011.05979-.67017 2.4804 2.4804 0 01.73343-.22241 2.51476 2.51476 0 01.51663.0293l.3016.1001c1.45258.5332 2.73856 1.09912 4.09983 1.66455 5.36709 2.27221 10.70144 4.59765 16.03756 6.929l-.28372-.05884 19.79071-.07641 2.47342-.00781 2.45169.07714a46.68879 46.68879 0 004.85495-.25683 43.456 43.456 0 009.47064-2.13159 56.81982 56.81982 0 0017.0134-9.44214 69.59548 69.59548 0 007.24173-6.65112A64.66215 64.66215 0 00459.239 293.41043zM289.91705 273.48172c-.69351.353-1.39117.6958-2.09968 1.01123l.11065-.25684c.44992.967.86281 1.94873 1.27083 2.93213q.63129 1.46778 1.14835 2.981c.35126 1.0061.67456 2.02319 1.04347 3.02246.37073.99829.78276 1.98022 1.20555 2.958 1.75733 3.88452 3.42934 7.803 4.84584 11.823l-.37408-.16163c1.4144-.50854 2.84086-.98657 4.28322-1.42456a.03518.03518 0 01.0258.06519q-2.02638 1.003-4.0966 1.89551a.27886.27886 0 01-.36594-.14282l-.00841-.01905c-1.72681-3.89673-3.19809-7.89477-4.58409-11.92676-.363-1.00146-.73683-1.99853-1.15193-2.97949-.41692-.98-.87943-1.94189-1.314-2.915q-.66427-1.45458-1.20913-2.95654c-.37783-.99561-.75075-1.99316-1.08666-3.00537l-.00613-.01831a.18965.18965 0 01.1169-.23853c.73143-.25781 1.4737-.48852 2.22013-.70874a.03522.03522 0 01.02591.06519zM301.96117 296.11648c1.98246-.84033 3.95381-1.70874 5.9454-2.52636l5.97151-2.46045c3.98773-1.62329 7.98093-3.23291 12.00658-4.76074l-.15085.34936-2.25952-5.97388-2.30449-5.95581c-1.57179-3.95678-3.20227-7.88989-4.8269-11.82544l.295.1272q-6.12421 2.53491-12.27368 5.0061l-.01478.00611a.30006.30006 0 01-.19448.00976 1.63664 1.63664 0 01-.701-.34375 1.42756 1.42756 0 01-.42681-.68676 2.1229 2.1229 0 01-.05856-.73438 2.93456 2.93456 0 01.141-.69409.30458.30458 0 01.047-.08911l.00694-.00879a2.90621 2.90621 0 00.6221-1.75464 2.24764 2.24764 0 00-.72757-1.63867 3.52839 3.52839 0 00-3.6513-.48364 3.60613 3.60613 0 00-2.36817 2.85351 2.32562 2.32562 0 00.58092 1.748 2.93532 2.93532 0 001.698.89844l.01275.00219a.18822.18822 0 01.06276.02246 2.4513 2.4513 0 01.98491.94336 1.30282 1.30282 0 01.14115.72974 1.51235 1.51235 0 01-.26311.67261.19732.19732 0 01-.09862.08252l-.00781.00293q-4.89466 1.88562-9.82245 3.68725a.035.035 0 01-.02583-.06494q4.81911-2.07568 9.67737-4.05273l-.10614.0852a.84556.84556 0 00.06738-.9104 1.97444 1.97444 0 00-.78436-.70361l.07513.02466a3.49176 3.49176 0 01-2.04208-1.02369 2.94262 2.94262 0 01-.79064-2.18579 4.16158 4.16158 0 012.74686-3.47168 4.23635 4.23635 0 014.40994.60962 2.98667 2.98667 0 01.96984 2.16431 3.52376 3.52376 0 01-.77962 2.2102l.05371-.09765a1.87724 1.87724 0 00-.07787.98681.7353.7353 0 00.59238.5337l-.20889.01587q6.16836-2.42359 12.366-4.77369l.00594-.00219a.22416.22416 0 01.28929.12964c1.51866 3.97778 3.0315 7.95776 4.603 11.91455l2.41048 5.91381 2.45544 5.896a.265.265 0 01-.14271.34644l-.0004.00024-.00786.00317c-3.97766 1.64869-7.98774 3.21582-12.00332 4.769l-6.03345 2.30444c-2.01006.771-4.04036 1.49072-6.05956 2.23877a.03507.03507 0 01-.02584-.06519zM549.42776 350.98728l-40.04109-23.9616 33.73541-5.29677S551.44558 331.818 549.42776 350.98728z"/></svg>